<svg width="41" height="41" viewBox="0 0 41 41" fill="none" xmlns="http://www.w3.org/2000/svg">
<path d="M2.92822 22.7889L7.59209 18.1524C8.39448 17.3537 9.17484 17.3488 9.97234 18.1463C10.9325 19.1064 11.8988 20.0591 12.8406 21.0375C13.0938 21.3005 13.2222 21.3372 13.5036 21.0522C15.9034 18.622 18.3228 16.2102 20.7373 13.7935C21.5825 12.9471 22.3421 12.9434 23.1836 13.7837C25.5345 16.1344 27.885 18.4859 30.235 20.8382C31.1194 21.7261 30.816 23.0592 29.6626 23.3772C29.0584 23.5435 28.5679 23.3283 28.1373 22.8941C26.1913 20.9372 24.233 18.9902 22.2956 17.0235C22.0289 16.752 21.9017 16.7508 21.6338 17.0235C19.2348 19.4508 16.8232 21.8692 14.3989 24.2786C13.5574 25.12 12.7966 25.1176 11.9526 24.2725C10.9839 23.3014 10.009 22.334 9.05131 21.3506C8.84459 21.139 8.73574 21.1305 8.52168 21.3506C6.74078 23.1501 4.9509 24.9411 3.15206 26.7235C3.07499 26.7935 3.01439 26.8797 2.97463 26.9759C2.93486 27.0721 2.91693 27.176 2.92211 27.2799C2.93434 28.3929 2.9221 29.5059 2.92822 30.6201C2.92822 31.6107 3.53246 32.21 4.52565 32.21C10.2924 32.21 16.0591 32.21 21.8259 32.21C22.9744 32.21 23.7144 33.1884 23.3304 34.1962C23.1041 34.787 22.561 35.1416 21.8516 35.1416C19.0905 35.1416 16.3299 35.1416 13.5696 35.1416C10.5802 35.1416 7.59127 35.1416 4.60271 35.1416C1.88487 35.1416 0 33.2606 0 30.5479C0 21.9051 0 13.2578 0 4.60597C0 1.88838 1.88121 0.00122304 4.58926 0C13.2369 0 21.8846 0 30.5323 0C33.2525 0 35.1399 1.87615 35.1411 4.58518C35.1411 10.3359 35.1411 16.0842 35.1411 21.8301C35.1411 22.4489 34.9148 22.9308 34.3754 23.2366C34.1522 23.3706 33.8953 23.4377 33.635 23.4299C33.3748 23.422 33.1224 23.3397 32.9076 23.1925C32.3976 22.8696 32.2104 22.3878 32.2117 21.7922C32.2206 17.7496 32.2206 13.7078 32.2117 9.66692C32.2117 7.95466 32.2117 6.24648 32.2117 4.54238C32.2117 3.51747 31.6172 2.92429 30.5946 2.92429C21.9013 2.92429 13.208 2.92429 4.51465 2.92429C3.53613 2.92429 2.92455 3.51991 2.92455 4.47755C2.92455 10.4859 2.92455 16.4952 2.92455 22.5052L2.92822 22.7889Z" fill="#696969"/>
<path d="M37.4992 35.1418C36.8289 35.1418 36.1537 35.1565 35.4883 35.1344C35.2082 35.1259 35.1312 35.1956 35.1349 35.483C35.152 36.7782 35.1446 38.0734 35.141 39.3698C35.141 40.3348 34.5367 41.0002 33.6732 40.9977C32.8096 40.9953 32.2152 40.3287 32.214 39.3601C32.214 38.1113 32.1907 36.8602 32.2262 35.6114C32.2384 35.1834 32.0966 35.1222 31.721 35.1332C30.4722 35.1565 29.2221 35.143 27.9721 35.1406C27.0144 35.1406 26.3477 34.529 26.3575 33.6595C26.3673 32.7899 27.0229 32.2163 27.9586 32.2138C29.254 32.2138 30.5505 32.2028 31.8458 32.2199C32.1406 32.2199 32.225 32.149 32.2213 31.853C32.203 30.5578 32.2115 29.2614 32.214 27.9662C32.214 27.0281 32.8096 26.3762 33.6573 26.3616C34.5049 26.3469 35.1385 27.0159 35.141 27.9735C35.141 29.2528 35.1581 30.5334 35.1324 31.8139C35.1251 32.1735 35.2376 32.2309 35.563 32.2261C36.8424 32.2065 38.123 32.215 39.4037 32.2187C40.332 32.2187 40.9937 32.8302 40.9937 33.6729C40.9937 34.5156 40.3394 35.1406 39.4159 35.1406C38.7798 35.1418 38.1401 35.1418 37.4992 35.1418Z" fill="#696969"/>
<path d="M13.1788 5.85156C14.0461 5.85183 14.8938 6.1088 15.6153 6.5901C16.3367 7.07139 16.8995 7.75547 17.2327 8.55609C17.5659 9.35671 17.6546 10.238 17.4876 11.089C17.3207 11.94 16.9055 12.7225 16.2945 13.3379C15.6835 13.9533 14.9039 14.374 14.0541 14.5471C13.2043 14.7202 12.3223 14.6378 11.5192 14.3104C10.7161 13.983 10.0279 13.4252 9.54141 12.7074C9.05488 11.9895 8.79178 11.1437 8.78525 10.2765C8.78138 9.69703 8.89215 9.12248 9.11118 8.58595C9.33022 8.04942 9.65319 7.56149 10.0615 7.15023C10.4699 6.73898 10.9555 6.41253 11.4905 6.18965C12.0255 5.96677 12.5992 5.85187 13.1788 5.85156ZM11.711 10.1762C11.6967 10.467 11.7691 10.7555 11.9192 11.005C12.0692 11.2545 12.2901 11.4538 12.5537 11.5774C12.8173 11.7011 13.1118 11.7435 13.3996 11.6994C13.6874 11.6552 13.9555 11.5265 14.17 11.3295C14.3844 11.1326 14.5354 10.8763 14.6038 10.5933C14.6721 10.3103 14.6548 10.0133 14.5539 9.7402C14.453 9.46709 14.2732 9.23015 14.0372 9.05951C13.8013 8.88888 13.5199 8.79227 13.229 8.78197C12.8443 8.76963 12.4702 8.90885 12.1872 9.16963C11.9042 9.43041 11.735 9.7919 11.7159 10.1762H11.711Z" fill="#696969"/>
</svg>
